<?xml version="1.0" encoding="UTF-8"?>
<svg id="Layer_1" data-name="Layer 1" xmlns="http://www.w3.org/2000/svg" viewBox="0 0 841.89 595.28">
  <defs>
    <style>
      .cls-1 {
        fill: #fad;
        stroke-width: 0px;
      }
    </style>
  </defs>
  <g>
    <path class="cls-1" d="M90.32,170.7c.33,4.5,2.79,6.76,7.36,6.76v.91h-8.47c-2.49,0-4.74-.44-6.75-1.31-4.44-1.95-6.86-5.18-7.26-9.68v-.3l-3.53-48.1-18.15,37.11c.07.27.17.54.31.81,1.41,3.56,1.04,6.94-1.11,10.13-2.15,3.2-5.08,4.79-8.77,4.79h-.5c.34-.27.28-1.16-.15-2.67-.44-1.51-.92-2.87-1.46-4.08-.54-1.21-.87-1.95-1.01-2.22l-18.25-42.66-3.73,50.52v.91c0,3.9,2.49,5.85,7.46,5.85v.91h-15.83v-.91c4.7,0,7.19-2.25,7.46-6.76l3.63-50.42c0-4.57-2.45-6.86-7.36-6.86v-.91h20.67l18.15,42.56,20.77-42.56h20.17v.91c-4.9,0-7.36,2.25-7.36,6.76l3.73,50.52Z"/>
    <path class="cls-1" d="M67.31,94.68c-6.72,2.68-11.94,8.33-14.05,15.32-2.11-6.99-7.33-12.63-14.05-15.32,6.72-2.7,11.94-8.33,14.05-15.32,2.11,6.99,7.33,12.64,14.05,15.32Z"/>
  </g>
  <g>
    <path class="cls-1" d="M171.38,105.65c.33,4.5,2.79,6.76,7.36,6.76v.91h-8.47c-2.49,0-4.74-.44-6.75-1.31-4.44-1.95-6.86-5.18-7.26-9.68v-.3l-3.53-48.1-18.15,37.11c.07.27.17.54.31.81,1.41,3.56,1.04,6.94-1.11,10.13-2.15,3.2-5.08,4.79-8.77,4.79h-.5c.34-.27.28-1.16-.15-2.67-.44-1.51-.92-2.87-1.46-4.08-.54-1.21-.87-1.95-1.01-2.22l-18.25-42.66-3.73,50.52v.91c0,3.9,2.49,5.85,7.46,5.85v.91h-15.83v-.91c4.7,0,7.19-2.25,7.46-6.76l3.63-50.42c0-4.57-2.45-6.86-7.36-6.86v-.91h20.67l18.15,42.56,20.77-42.56h20.17v.91c-4.9,0-7.36,2.25-7.36,6.76l3.73,50.52Z"/>
    <path class="cls-1" d="M148.37,29.63c-6.72,2.68-11.94,8.33-14.05,15.32-2.11-6.99-7.33-12.63-14.05-15.32,6.72-2.7,11.94-8.33,14.05-15.32,2.11,6.99,7.33,12.64,14.05,15.32Z"/>
  </g>
  <g>
    <path class="cls-1" d="M252.43,170.7c.33,4.5,2.79,6.76,7.36,6.76v.91h-8.47c-2.49,0-4.74-.44-6.75-1.31-4.44-1.95-6.86-5.18-7.26-9.68v-.3l-3.53-48.1-18.15,37.11c.07.27.17.54.31.81,1.41,3.56,1.04,6.94-1.11,10.13-2.15,3.2-5.08,4.79-8.77,4.79h-.5c.34-.27.28-1.16-.15-2.67-.44-1.51-.92-2.87-1.46-4.08-.54-1.21-.87-1.95-1.01-2.22l-18.25-42.66-3.73,50.52v.91c0,3.9,2.49,5.85,7.46,5.85v.91h-15.83v-.91c4.7,0,7.19-2.25,7.46-6.76l3.63-50.42c0-4.57-2.45-6.86-7.36-6.86v-.91h20.67l18.15,42.56,20.77-42.56h20.17v.91c-4.9,0-7.36,2.25-7.36,6.76l3.73,50.52Z"/>
    <path class="cls-1" d="M229.42,94.68c-6.72,2.68-11.94,8.33-14.05,15.32-2.11-6.99-7.33-12.63-14.05-15.32,6.72-2.7,11.94-8.33,14.05-15.32,2.11,6.99,7.33,12.64,14.05,15.32Z"/>
  </g>
  <g>
    <path class="cls-1" d="M333.48,105.65c.33,4.5,2.79,6.76,7.36,6.76v.91h-8.47c-2.49,0-4.74-.44-6.75-1.31-4.44-1.95-6.86-5.18-7.26-9.68v-.3l-3.53-48.1-18.15,37.11c.07.27.17.54.31.81,1.41,3.56,1.04,6.94-1.11,10.13-2.15,3.2-5.08,4.79-8.77,4.79h-.5c.34-.27.28-1.16-.15-2.67-.44-1.51-.92-2.87-1.46-4.08-.54-1.21-.87-1.95-1.01-2.22l-18.25-42.66-3.73,50.52v.91c0,3.9,2.49,5.85,7.46,5.85v.91h-15.83v-.91c4.7,0,7.19-2.25,7.46-6.76l3.63-50.42c0-4.57-2.45-6.86-7.36-6.86v-.91h20.67l18.15,42.56,20.77-42.56h20.17v.91c-4.9,0-7.36,2.25-7.36,6.76l3.73,50.52Z"/>
    <path class="cls-1" d="M310.48,29.63c-6.72,2.68-11.94,8.33-14.05,15.32-2.11-6.99-7.33-12.63-14.05-15.32,6.72-2.7,11.94-8.33,14.05-15.32,2.11,6.99,7.33,12.64,14.05,15.32Z"/>
  </g>
  <g>
    <path class="cls-1" d="M414.54,170.7c.33,4.5,2.79,6.76,7.36,6.76v.91h-8.47c-2.49,0-4.74-.44-6.75-1.31-4.44-1.95-6.86-5.18-7.26-9.68v-.3l-3.53-48.1-18.15,37.11c.07.27.17.54.31.81,1.41,3.56,1.04,6.94-1.11,10.13-2.15,3.2-5.08,4.79-8.77,4.79h-.5c.34-.27.28-1.16-.15-2.67-.44-1.51-.92-2.87-1.46-4.08-.54-1.21-.87-1.95-1.01-2.22l-18.25-42.66-3.73,50.52v.91c0,3.9,2.49,5.85,7.46,5.85v.91h-15.83v-.91c4.7,0,7.19-2.25,7.46-6.76l3.63-50.42c0-4.57-2.45-6.86-7.36-6.86v-.91h20.67l18.15,42.56,20.77-42.56h20.17v.91c-4.9,0-7.36,2.25-7.36,6.76l3.73,50.52Z"/>
    <path class="cls-1" d="M391.53,94.68c-6.72,2.68-11.94,8.33-14.05,15.32-2.11-6.99-7.33-12.63-14.05-15.32,6.72-2.7,11.94-8.33,14.05-15.32,2.11,6.99,7.33,12.64,14.05,15.32Z"/>
  </g>
  <g>
    <path class="cls-1" d="M495.59,105.65c.33,4.5,2.79,6.76,7.36,6.76v.91h-8.47c-2.49,0-4.74-.44-6.75-1.31-4.44-1.95-6.86-5.18-7.26-9.68v-.3l-3.53-48.1-18.15,37.11c.07.27.17.54.31.81,1.41,3.56,1.04,6.94-1.11,10.13-2.15,3.2-5.08,4.79-8.77,4.79h-.5c.34-.27.28-1.16-.15-2.67-.44-1.51-.92-2.87-1.46-4.08-.54-1.21-.87-1.95-1.01-2.22l-18.25-42.66-3.73,50.52v.91c0,3.9,2.49,5.85,7.46,5.85v.91h-15.83v-.91c4.7,0,7.19-2.25,7.46-6.76l3.63-50.42c0-4.57-2.45-6.86-7.36-6.86v-.91h20.67l18.15,42.56,20.77-42.56h20.17v.91c-4.9,0-7.36,2.25-7.36,6.76l3.73,50.52Z"/>
    <path class="cls-1" d="M472.58,29.63c-6.72,2.68-11.94,8.33-14.05,15.32-2.11-6.99-7.33-12.63-14.05-15.32,6.72-2.7,11.94-8.33,14.05-15.32,2.11,6.99,7.33,12.64,14.05,15.32Z"/>
  </g>
  <g>
    <path class="cls-1" d="M576.65,170.7c.33,4.5,2.79,6.76,7.36,6.76v.91h-8.47c-2.49,0-4.74-.44-6.75-1.31-4.44-1.95-6.86-5.18-7.26-9.68v-.3l-3.53-48.1-18.15,37.11c.07.27.17.54.31.81,1.41,3.56,1.04,6.94-1.11,10.13-2.15,3.2-5.08,4.79-8.77,4.79h-.5c.34-.27.28-1.16-.15-2.67-.44-1.51-.92-2.87-1.46-4.08-.54-1.21-.87-1.95-1.01-2.22l-18.25-42.66-3.73,50.52v.91c0,3.9,2.49,5.85,7.46,5.85v.91h-15.83v-.91c4.7,0,7.19-2.25,7.46-6.76l3.63-50.42c0-4.57-2.45-6.86-7.36-6.86v-.91h20.67l18.15,42.56,20.77-42.56h20.17v.91c-4.9,0-7.36,2.25-7.36,6.76l3.73,50.52Z"/>
    <path class="cls-1" d="M553.64,94.68c-6.72,2.68-11.94,8.33-14.05,15.32-2.11-6.99-7.33-12.63-14.05-15.32,6.72-2.7,11.94-8.33,14.05-15.32,2.11,6.99,7.33,12.64,14.05,15.32Z"/>
  </g>
  <g>
    <path class="cls-1" d="M657.7,105.65c.33,4.5,2.79,6.76,7.36,6.76v.91h-8.47c-2.49,0-4.74-.44-6.75-1.31-4.44-1.95-6.86-5.18-7.26-9.68v-.3l-3.53-48.1-18.15,37.11c.07.27.17.54.31.81,1.41,3.56,1.04,6.94-1.11,10.13-2.15,3.2-5.08,4.79-8.77,4.79h-.5c.34-.27.28-1.16-.15-2.67-.44-1.51-.92-2.87-1.46-4.08-.54-1.21-.87-1.95-1.01-2.22l-18.25-42.66-3.73,50.52v.91c0,3.9,2.49,5.85,7.46,5.85v.91h-15.83v-.91c4.7,0,7.19-2.25,7.46-6.76l3.63-50.42c0-4.57-2.45-6.86-7.36-6.86v-.91h20.67l18.15,42.56,20.77-42.56h20.17v.91c-4.9,0-7.36,2.25-7.36,6.76l3.73,50.52Z"/>
    <path class="cls-1" d="M634.69,29.63c-6.72,2.68-11.94,8.33-14.05,15.32-2.11-6.99-7.33-12.63-14.05-15.32,6.72-2.7,11.94-8.33,14.05-15.32,2.11,6.99,7.33,12.64,14.05,15.32Z"/>
  </g>
  <g>
    <path class="cls-1" d="M738.75,170.7c.33,4.5,2.79,6.76,7.36,6.76v.91h-8.47c-2.49,0-4.74-.44-6.75-1.31-4.44-1.95-6.86-5.18-7.26-9.68v-.3l-3.53-48.1-18.15,37.11c.07.27.17.54.31.81,1.41,3.56,1.04,6.94-1.11,10.13-2.15,3.2-5.08,4.79-8.77,4.79h-.5c.34-.27.28-1.16-.15-2.67-.44-1.51-.92-2.87-1.46-4.08-.54-1.21-.87-1.95-1.01-2.22l-18.25-42.66-3.73,50.52v.91c0,3.9,2.49,5.85,7.46,5.85v.91h-15.83v-.91c4.7,0,7.19-2.25,7.46-6.76l3.63-50.42c0-4.57-2.45-6.86-7.36-6.86v-.91h20.67l18.15,42.56,20.77-42.56h20.17v.91c-4.9,0-7.36,2.25-7.36,6.76l3.73,50.52Z"/>
    <path class="cls-1" d="M715.75,94.68c-6.72,2.68-11.94,8.33-14.05,15.32-2.11-6.99-7.33-12.63-14.05-15.32,6.72-2.7,11.94-8.33,14.05-15.32,2.11,6.99,7.33,12.64,14.05,15.32Z"/>
  </g>
  <g>
    <path class="cls-1" d="M819.81,105.65c.33,4.5,2.79,6.76,7.36,6.76v.91h-8.47c-2.49,0-4.74-.44-6.75-1.31-4.44-1.95-6.86-5.18-7.26-9.68v-.3l-3.53-48.1-18.15,37.11c.07.27.17.54.31.81,1.41,3.56,1.04,6.94-1.11,10.13-2.15,3.2-5.08,4.79-8.77,4.79h-.5c.34-.27.28-1.16-.15-2.67-.44-1.51-.92-2.87-1.46-4.08-.54-1.21-.87-1.95-1.01-2.22l-18.25-42.66-3.73,50.52v.91c0,3.9,2.49,5.85,7.46,5.85v.91h-15.83v-.91c4.7,0,7.19-2.25,7.46-6.76l3.63-50.42c0-4.57-2.45-6.86-7.36-6.86v-.91h20.67l18.15,42.56,20.77-42.56h20.17v.91c-4.9,0-7.36,2.25-7.36,6.76l3.73,50.52Z"/>
    <path class="cls-1" d="M796.8,29.63c-6.72,2.68-11.94,8.33-14.05,15.32-2.11-6.99-7.33-12.63-14.05-15.32,6.72-2.7,11.94-8.33,14.05-15.32,2.11,6.99,7.33,12.64,14.05,15.32Z"/>
  </g>
  <g>
    <path class="cls-1" d="M90.32,300.82c.33,4.5,2.79,6.76,7.36,6.76v.91h-8.47c-2.49,0-4.74-.44-6.75-1.31-4.44-1.95-6.86-5.18-7.26-9.68v-.3l-3.53-48.1-18.15,37.11c.07.27.17.54.31.81,1.41,3.56,1.04,6.94-1.11,10.13-2.15,3.2-5.08,4.79-8.77,4.79h-.5c.34-.27.28-1.16-.15-2.67-.44-1.51-.92-2.87-1.46-4.08-.54-1.21-.87-1.95-1.01-2.22l-18.25-42.66-3.73,50.52v.91c0,3.9,2.49,5.85,7.46,5.85v.91h-15.83v-.91c4.7,0,7.19-2.25,7.46-6.76l3.63-50.42c0-4.57-2.45-6.86-7.36-6.86v-.91h20.67l18.15,42.56,20.77-42.56h20.17v.91c-4.9,0-7.36,2.25-7.36,6.76l3.73,50.52Z"/>
    <path class="cls-1" d="M67.31,224.8c-6.72,2.68-11.94,8.33-14.05,15.32-2.11-6.99-7.33-12.63-14.05-15.32,6.72-2.7,11.94-8.33,14.05-15.32,2.11,6.99,7.33,12.64,14.05,15.32Z"/>
  </g>
  <g>
    <path class="cls-1" d="M171.38,235.76c.33,4.5,2.79,6.76,7.36,6.76v.91h-8.47c-2.49,0-4.74-.44-6.75-1.31-4.44-1.95-6.86-5.18-7.26-9.68v-.3l-3.53-48.1-18.15,37.11c.07.27.17.54.31.81,1.41,3.56,1.04,6.94-1.11,10.13-2.15,3.2-5.08,4.79-8.77,4.79h-.5c.34-.27.28-1.16-.15-2.67-.44-1.51-.92-2.87-1.46-4.08-.54-1.21-.87-1.95-1.01-2.22l-18.25-42.66-3.73,50.52v.91c0,3.9,2.49,5.85,7.46,5.85v.91h-15.83v-.91c4.7,0,7.19-2.25,7.46-6.76l3.63-50.42c0-4.57-2.45-6.86-7.36-6.86v-.91h20.67l18.15,42.56,20.77-42.56h20.17v.91c-4.9,0-7.36,2.25-7.36,6.76l3.73,50.52Z"/>
    <path class="cls-1" d="M148.37,159.74c-6.72,2.68-11.94,8.33-14.05,15.32-2.11-6.99-7.33-12.63-14.05-15.32,6.72-2.7,11.94-8.33,14.05-15.32,2.11,6.99,7.33,12.64,14.05,15.32Z"/>
  </g>
  <g>
    <path class="cls-1" d="M252.43,300.82c.33,4.5,2.79,6.76,7.36,6.76v.91h-8.47c-2.49,0-4.74-.44-6.75-1.31-4.44-1.95-6.86-5.18-7.26-9.68v-.3l-3.53-48.1-18.15,37.11c.07.27.17.54.31.81,1.41,3.56,1.04,6.94-1.11,10.13-2.15,3.2-5.08,4.79-8.77,4.79h-.5c.34-.27.28-1.16-.15-2.67-.44-1.51-.92-2.87-1.46-4.08-.54-1.21-.87-1.95-1.01-2.22l-18.25-42.66-3.73,50.52v.91c0,3.9,2.49,5.85,7.46,5.85v.91h-15.83v-.91c4.7,0,7.19-2.25,7.46-6.76l3.63-50.42c0-4.57-2.45-6.86-7.36-6.86v-.91h20.67l18.15,42.56,20.77-42.56h20.17v.91c-4.9,0-7.36,2.25-7.36,6.76l3.73,50.52Z"/>
    <path class="cls-1" d="M229.42,224.8c-6.72,2.68-11.94,8.33-14.05,15.32-2.11-6.99-7.33-12.63-14.05-15.32,6.72-2.7,11.94-8.33,14.05-15.32,2.11,6.99,7.33,12.64,14.05,15.32Z"/>
  </g>
  <g>
    <path class="cls-1" d="M333.48,235.76c.33,4.5,2.79,6.76,7.36,6.76v.91h-8.47c-2.49,0-4.74-.44-6.75-1.31-4.44-1.95-6.86-5.18-7.26-9.68v-.3l-3.53-48.1-18.15,37.11c.07.27.17.54.31.81,1.41,3.56,1.04,6.94-1.11,10.13-2.15,3.2-5.08,4.79-8.77,4.79h-.5c.34-.27.28-1.16-.15-2.67-.44-1.51-.92-2.87-1.46-4.08-.54-1.21-.87-1.95-1.01-2.22l-18.25-42.66-3.73,50.52v.91c0,3.9,2.49,5.85,7.46,5.85v.91h-15.83v-.91c4.7,0,7.19-2.25,7.46-6.76l3.63-50.42c0-4.57-2.45-6.86-7.36-6.86v-.91h20.67l18.15,42.56,20.77-42.56h20.17v.91c-4.9,0-7.36,2.25-7.36,6.76l3.73,50.52Z"/>
    <path class="cls-1" d="M310.48,159.74c-6.72,2.68-11.94,8.33-14.05,15.32-2.11-6.99-7.33-12.63-14.05-15.32,6.72-2.7,11.94-8.33,14.05-15.32,2.11,6.99,7.33,12.64,14.05,15.32Z"/>
  </g>
  <g>
    <path class="cls-1" d="M414.54,300.82c.33,4.5,2.79,6.76,7.36,6.76v.91h-8.47c-2.49,0-4.74-.44-6.75-1.31-4.44-1.95-6.86-5.18-7.26-9.68v-.3l-3.53-48.1-18.15,37.11c.07.27.17.54.31.81,1.41,3.56,1.04,6.94-1.11,10.13-2.15,3.2-5.08,4.79-8.77,4.79h-.5c.34-.27.28-1.16-.15-2.67-.44-1.51-.92-2.87-1.46-4.08-.54-1.21-.87-1.95-1.01-2.22l-18.25-42.66-3.73,50.52v.91c0,3.9,2.49,5.85,7.46,5.85v.91h-15.83v-.91c4.7,0,7.19-2.25,7.46-6.76l3.63-50.42c0-4.57-2.45-6.86-7.36-6.86v-.91h20.67l18.15,42.56,20.77-42.56h20.17v.91c-4.9,0-7.36,2.25-7.36,6.76l3.73,50.52Z"/>
    <path class="cls-1" d="M391.53,224.8c-6.72,2.68-11.94,8.33-14.05,15.32-2.11-6.99-7.33-12.63-14.05-15.32,6.72-2.7,11.94-8.33,14.05-15.32,2.11,6.99,7.33,12.64,14.05,15.32Z"/>
  </g>
  <g>
    <path class="cls-1" d="M495.59,235.76c.33,4.5,2.79,6.76,7.36,6.76v.91h-8.47c-2.49,0-4.74-.44-6.75-1.31-4.44-1.95-6.86-5.18-7.26-9.68v-.3l-3.53-48.1-18.15,37.11c.07.27.17.54.31.81,1.41,3.56,1.04,6.94-1.11,10.13-2.15,3.2-5.08,4.79-8.77,4.79h-.5c.34-.27.28-1.16-.15-2.67-.44-1.51-.92-2.87-1.46-4.08-.54-1.21-.87-1.95-1.01-2.22l-18.25-42.66-3.73,50.52v.91c0,3.9,2.49,5.85,7.46,5.85v.91h-15.83v-.91c4.7,0,7.19-2.25,7.46-6.76l3.63-50.42c0-4.57-2.45-6.86-7.36-6.86v-.91h20.67l18.15,42.56,20.77-42.56h20.17v.91c-4.9,0-7.36,2.25-7.36,6.76l3.73,50.52Z"/>
    <path class="cls-1" d="M472.58,159.74c-6.72,2.68-11.94,8.33-14.05,15.32-2.11-6.99-7.33-12.63-14.05-15.32,6.72-2.7,11.94-8.33,14.05-15.32,2.11,6.99,7.33,12.64,14.05,15.32Z"/>
  </g>
  <g>
    <path class="cls-1" d="M576.65,300.82c.33,4.5,2.79,6.76,7.36,6.76v.91h-8.47c-2.49,0-4.74-.44-6.75-1.31-4.44-1.95-6.86-5.18-7.26-9.68v-.3l-3.53-48.1-18.15,37.11c.07.27.17.54.31.81,1.41,3.56,1.04,6.94-1.11,10.13-2.15,3.2-5.08,4.79-8.77,4.79h-.5c.34-.27.28-1.16-.15-2.67-.44-1.51-.92-2.87-1.46-4.08-.54-1.21-.87-1.95-1.01-2.22l-18.25-42.66-3.73,50.52v.91c0,3.9,2.49,5.85,7.46,5.85v.91h-15.83v-.91c4.7,0,7.19-2.25,7.46-6.76l3.63-50.42c0-4.57-2.45-6.86-7.36-6.86v-.91h20.67l18.15,42.56,20.77-42.56h20.17v.91c-4.9,0-7.36,2.25-7.36,6.76l3.73,50.52Z"/>
    <path class="cls-1" d="M553.64,224.8c-6.72,2.68-11.94,8.33-14.05,15.32-2.11-6.99-7.33-12.63-14.05-15.32,6.72-2.7,11.94-8.33,14.05-15.32,2.11,6.99,7.33,12.64,14.05,15.32Z"/>
  </g>
  <g>
    <path class="cls-1" d="M657.7,235.76c.33,4.5,2.79,6.76,7.36,6.76v.91h-8.47c-2.49,0-4.74-.44-6.75-1.31-4.44-1.95-6.86-5.18-7.26-9.68v-.3l-3.53-48.1-18.15,37.11c.07.27.17.54.31.81,1.41,3.56,1.04,6.94-1.11,10.13-2.15,3.2-5.08,4.79-8.77,4.79h-.5c.34-.27.28-1.16-.15-2.67-.44-1.51-.92-2.87-1.46-4.08-.54-1.21-.87-1.95-1.01-2.22l-18.25-42.66-3.73,50.52v.91c0,3.9,2.49,5.85,7.46,5.85v.91h-15.83v-.91c4.7,0,7.19-2.25,7.46-6.76l3.63-50.42c0-4.57-2.45-6.86-7.36-6.86v-.91h20.67l18.15,42.56,20.77-42.56h20.17v.91c-4.9,0-7.36,2.25-7.36,6.76l3.73,50.52Z"/>
    <path class="cls-1" d="M634.69,159.74c-6.72,2.68-11.94,8.33-14.05,15.32-2.11-6.99-7.33-12.63-14.05-15.32,6.72-2.7,11.94-8.33,14.05-15.32,2.11,6.99,7.33,12.64,14.05,15.32Z"/>
  </g>
  <g>
    <path class="cls-1" d="M738.75,300.82c.33,4.5,2.79,6.76,7.36,6.76v.91h-8.47c-2.49,0-4.74-.44-6.75-1.31-4.44-1.95-6.86-5.18-7.26-9.68v-.3l-3.53-48.1-18.15,37.11c.07.27.17.54.31.81,1.41,3.56,1.04,6.94-1.11,10.13-2.15,3.2-5.08,4.79-8.77,4.79h-.5c.34-.27.28-1.16-.15-2.67-.44-1.51-.92-2.87-1.46-4.08-.54-1.21-.87-1.95-1.01-2.22l-18.25-42.66-3.73,50.52v.91c0,3.9,2.49,5.85,7.46,5.85v.91h-15.83v-.91c4.7,0,7.19-2.25,7.46-6.76l3.63-50.42c0-4.57-2.45-6.86-7.36-6.86v-.91h20.67l18.15,42.56,20.77-42.56h20.17v.91c-4.9,0-7.36,2.25-7.36,6.76l3.73,50.52Z"/>
    <path class="cls-1" d="M715.75,224.8c-6.72,2.68-11.94,8.33-14.05,15.32-2.11-6.99-7.33-12.63-14.05-15.32,6.72-2.7,11.94-8.33,14.05-15.32,2.11,6.99,7.33,12.64,14.05,15.32Z"/>
  </g>
  <g>
    <path class="cls-1" d="M819.81,235.76c.33,4.5,2.79,6.76,7.36,6.76v.91h-8.47c-2.49,0-4.74-.44-6.75-1.31-4.44-1.95-6.86-5.18-7.26-9.68v-.3l-3.53-48.1-18.15,37.11c.07.27.17.54.31.81,1.41,3.56,1.04,6.94-1.11,10.13-2.15,3.2-5.08,4.79-8.77,4.79h-.5c.34-.27.28-1.16-.15-2.67-.44-1.51-.92-2.87-1.46-4.08-.54-1.21-.87-1.95-1.01-2.22l-18.25-42.66-3.73,50.52v.91c0,3.9,2.49,5.85,7.46,5.85v.91h-15.83v-.91c4.7,0,7.19-2.25,7.46-6.76l3.63-50.42c0-4.57-2.45-6.86-7.36-6.86v-.91h20.67l18.15,42.56,20.77-42.56h20.17v.91c-4.9,0-7.36,2.25-7.36,6.76l3.73,50.52Z"/>
    <path class="cls-1" d="M796.8,159.74c-6.72,2.68-11.94,8.33-14.05,15.32-2.11-6.99-7.33-12.63-14.05-15.32,6.72-2.7,11.94-8.33,14.05-15.32,2.11,6.99,7.33,12.64,14.05,15.32Z"/>
  </g>
  <g>
    <path class="cls-1" d="M90.32,430.94c.33,4.5,2.79,6.76,7.36,6.76v.91h-8.47c-2.49,0-4.74-.44-6.75-1.31-4.44-1.95-6.86-5.18-7.26-9.68v-.3l-3.53-48.1-18.15,37.11c.07.27.17.54.31.81,1.41,3.56,1.04,6.94-1.11,10.13-2.15,3.2-5.08,4.79-8.77,4.79h-.5c.34-.27.28-1.16-.15-2.67-.44-1.51-.92-2.87-1.46-4.08-.54-1.21-.87-1.95-1.01-2.22l-18.25-42.66-3.73,50.52v.91c0,3.9,2.49,5.85,7.46,5.85v.91h-15.83v-.91c4.7,0,7.19-2.25,7.46-6.76l3.63-50.42c0-4.57-2.45-6.86-7.36-6.86v-.91h20.67l18.15,42.56,20.77-42.56h20.17v.91c-4.9,0-7.36,2.25-7.36,6.76l3.73,50.52Z"/>
    <path class="cls-1" d="M67.31,354.92c-6.72,2.68-11.94,8.33-14.05,15.32-2.11-6.99-7.33-12.63-14.05-15.32,6.72-2.7,11.94-8.33,14.05-15.32,2.11,6.99,7.33,12.64,14.05,15.32Z"/>
  </g>
  <g>
    <path class="cls-1" d="M171.38,365.88c.33,4.5,2.79,6.76,7.36,6.76v.91h-8.47c-2.49,0-4.74-.44-6.75-1.31-4.44-1.95-6.86-5.18-7.26-9.68v-.3l-3.53-48.1-18.15,37.11c.07.27.17.54.31.81,1.41,3.56,1.04,6.94-1.11,10.13-2.15,3.2-5.08,4.79-8.77,4.79h-.5c.34-.27.28-1.16-.15-2.67-.44-1.51-.92-2.87-1.46-4.08-.54-1.21-.87-1.95-1.01-2.22l-18.25-42.66-3.73,50.52v.91c0,3.9,2.49,5.85,7.46,5.85v.91h-15.83v-.91c4.7,0,7.19-2.25,7.46-6.76l3.63-50.42c0-4.57-2.45-6.86-7.36-6.86v-.91h20.67l18.15,42.56,20.77-42.56h20.17v.91c-4.9,0-7.36,2.25-7.36,6.76l3.73,50.52Z"/>
    <path class="cls-1" d="M148.37,289.86c-6.72,2.68-11.94,8.33-14.05,15.32-2.11-6.99-7.33-12.63-14.05-15.32,6.72-2.7,11.94-8.33,14.05-15.32,2.11,6.99,7.33,12.64,14.05,15.32Z"/>
  </g>
  <g>
    <path class="cls-1" d="M252.43,430.94c.33,4.5,2.79,6.76,7.36,6.76v.91h-8.47c-2.49,0-4.74-.44-6.75-1.31-4.44-1.95-6.86-5.18-7.26-9.68v-.3l-3.53-48.1-18.15,37.11c.07.27.17.54.31.81,1.41,3.56,1.04,6.94-1.11,10.13-2.15,3.2-5.08,4.79-8.77,4.79h-.5c.34-.27.28-1.16-.15-2.67-.44-1.51-.92-2.87-1.46-4.08-.54-1.21-.87-1.95-1.01-2.22l-18.25-42.66-3.73,50.52v.91c0,3.9,2.49,5.85,7.46,5.85v.91h-15.83v-.91c4.7,0,7.19-2.25,7.46-6.76l3.63-50.42c0-4.57-2.45-6.86-7.36-6.86v-.91h20.67l18.15,42.56,20.77-42.56h20.17v.91c-4.9,0-7.36,2.25-7.36,6.76l3.73,50.52Z"/>
    <path class="cls-1" d="M229.42,354.92c-6.72,2.68-11.94,8.33-14.05,15.32-2.11-6.99-7.33-12.63-14.05-15.32,6.72-2.7,11.94-8.33,14.05-15.32,2.11,6.99,7.33,12.64,14.05,15.32Z"/>
  </g>
  <g>
    <path class="cls-1" d="M333.48,365.88c.33,4.5,2.79,6.76,7.36,6.76v.91h-8.47c-2.49,0-4.74-.44-6.75-1.31-4.44-1.95-6.86-5.18-7.26-9.68v-.3l-3.53-48.1-18.15,37.11c.07.27.17.54.31.81,1.41,3.56,1.04,6.94-1.11,10.13-2.15,3.2-5.08,4.79-8.77,4.79h-.5c.34-.27.28-1.16-.15-2.67-.44-1.51-.92-2.87-1.46-4.08-.54-1.21-.87-1.95-1.01-2.22l-18.25-42.66-3.73,50.52v.91c0,3.9,2.49,5.85,7.46,5.85v.91h-15.83v-.91c4.7,0,7.19-2.25,7.46-6.76l3.63-50.42c0-4.57-2.45-6.86-7.36-6.86v-.91h20.67l18.15,42.56,20.77-42.56h20.17v.91c-4.9,0-7.36,2.25-7.36,6.76l3.73,50.52Z"/>
    <path class="cls-1" d="M310.48,289.86c-6.72,2.68-11.94,8.33-14.05,15.32-2.11-6.99-7.33-12.63-14.05-15.32,6.72-2.7,11.94-8.33,14.05-15.32,2.11,6.99,7.33,12.64,14.05,15.32Z"/>
  </g>
  <g>
    <path class="cls-1" d="M414.54,430.94c.33,4.5,2.79,6.76,7.36,6.76v.91h-8.47c-2.49,0-4.74-.44-6.75-1.31-4.44-1.95-6.86-5.18-7.26-9.68v-.3l-3.53-48.1-18.15,37.11c.07.27.17.54.31.81,1.41,3.56,1.04,6.94-1.11,10.13-2.15,3.2-5.08,4.79-8.77,4.79h-.5c.34-.27.28-1.16-.15-2.67-.44-1.51-.92-2.87-1.46-4.08-.54-1.21-.87-1.95-1.01-2.22l-18.25-42.66-3.73,50.52v.91c0,3.9,2.49,5.85,7.46,5.85v.91h-15.83v-.91c4.7,0,7.19-2.25,7.46-6.76l3.63-50.42c0-4.57-2.45-6.86-7.36-6.86v-.91h20.67l18.15,42.56,20.77-42.56h20.17v.91c-4.9,0-7.36,2.25-7.36,6.76l3.73,50.52Z"/>
    <path class="cls-1" d="M391.53,354.92c-6.72,2.68-11.94,8.33-14.05,15.32-2.11-6.99-7.33-12.63-14.05-15.32,6.72-2.7,11.94-8.33,14.05-15.32,2.11,6.99,7.33,12.64,14.05,15.32Z"/>
  </g>
  <g>
    <path class="cls-1" d="M495.59,365.88c.33,4.5,2.79,6.76,7.36,6.76v.91h-8.47c-2.49,0-4.74-.44-6.75-1.31-4.44-1.95-6.86-5.18-7.26-9.68v-.3l-3.53-48.1-18.15,37.11c.07.27.17.54.31.81,1.41,3.56,1.04,6.94-1.11,10.13-2.15,3.2-5.08,4.79-8.77,4.79h-.5c.34-.27.28-1.16-.15-2.67-.44-1.51-.92-2.87-1.46-4.08-.54-1.21-.87-1.95-1.01-2.22l-18.25-42.66-3.73,50.52v.91c0,3.9,2.49,5.85,7.46,5.85v.91h-15.83v-.91c4.7,0,7.19-2.25,7.46-6.76l3.63-50.42c0-4.57-2.45-6.86-7.36-6.86v-.91h20.67l18.15,42.56,20.77-42.56h20.17v.91c-4.9,0-7.36,2.25-7.36,6.76l3.73,50.52Z"/>
    <path class="cls-1" d="M472.58,289.86c-6.72,2.68-11.94,8.33-14.05,15.32-2.11-6.99-7.33-12.63-14.05-15.32,6.72-2.7,11.94-8.33,14.05-15.32,2.11,6.99,7.33,12.64,14.05,15.32Z"/>
  </g>
  <g>
    <path class="cls-1" d="M576.65,430.94c.33,4.5,2.79,6.76,7.36,6.76v.91h-8.47c-2.49,0-4.74-.44-6.75-1.31-4.44-1.95-6.86-5.18-7.26-9.68v-.3l-3.53-48.1-18.15,37.11c.07.27.17.54.31.81,1.41,3.56,1.04,6.94-1.11,10.13-2.15,3.2-5.08,4.79-8.77,4.79h-.5c.34-.27.28-1.16-.15-2.67-.44-1.51-.92-2.87-1.46-4.08-.54-1.21-.87-1.95-1.01-2.22l-18.25-42.66-3.73,50.52v.91c0,3.9,2.49,5.85,7.46,5.85v.91h-15.83v-.91c4.7,0,7.19-2.25,7.46-6.76l3.63-50.42c0-4.57-2.45-6.86-7.36-6.86v-.91h20.67l18.15,42.56,20.77-42.56h20.17v.91c-4.9,0-7.36,2.25-7.36,6.76l3.73,50.52Z"/>
    <path class="cls-1" d="M553.64,354.92c-6.72,2.68-11.94,8.33-14.05,15.32-2.11-6.99-7.33-12.63-14.05-15.32,6.72-2.7,11.94-8.33,14.05-15.32,2.11,6.99,7.33,12.64,14.05,15.32Z"/>
  </g>
  <g>
    <path class="cls-1" d="M657.7,365.88c.33,4.5,2.79,6.76,7.36,6.76v.91h-8.47c-2.49,0-4.74-.44-6.75-1.31-4.44-1.95-6.86-5.18-7.26-9.68v-.3l-3.53-48.1-18.15,37.11c.07.27.17.54.31.81,1.41,3.56,1.04,6.94-1.11,10.13-2.15,3.2-5.08,4.79-8.77,4.79h-.5c.34-.27.28-1.16-.15-2.67-.44-1.51-.92-2.87-1.46-4.08-.54-1.21-.87-1.95-1.01-2.22l-18.25-42.66-3.73,50.52v.91c0,3.9,2.49,5.85,7.46,5.85v.91h-15.83v-.91c4.7,0,7.19-2.25,7.46-6.76l3.63-50.42c0-4.57-2.45-6.86-7.36-6.86v-.91h20.67l18.15,42.56,20.77-42.56h20.17v.91c-4.9,0-7.36,2.25-7.36,6.76l3.73,50.52Z"/>
    <path class="cls-1" d="M634.69,289.86c-6.72,2.68-11.94,8.33-14.05,15.32-2.11-6.99-7.33-12.63-14.05-15.32,6.72-2.7,11.94-8.33,14.05-15.32,2.11,6.99,7.33,12.64,14.05,15.32Z"/>
  </g>
  <g>
    <path class="cls-1" d="M738.75,430.94c.33,4.5,2.79,6.76,7.36,6.76v.91h-8.47c-2.49,0-4.74-.44-6.75-1.31-4.44-1.95-6.86-5.18-7.26-9.68v-.3l-3.53-48.1-18.15,37.11c.07.27.17.54.31.81,1.41,3.56,1.04,6.94-1.11,10.13-2.15,3.2-5.08,4.79-8.77,4.79h-.5c.34-.27.28-1.16-.15-2.67-.44-1.51-.92-2.87-1.46-4.08-.54-1.21-.87-1.95-1.01-2.22l-18.25-42.66-3.73,50.52v.91c0,3.9,2.49,5.85,7.46,5.85v.91h-15.83v-.91c4.7,0,7.19-2.25,7.46-6.76l3.63-50.42c0-4.57-2.45-6.86-7.36-6.86v-.91h20.67l18.15,42.56,20.77-42.56h20.17v.91c-4.9,0-7.36,2.25-7.36,6.76l3.73,50.52Z"/>
    <path class="cls-1" d="M715.75,354.92c-6.72,2.68-11.94,8.33-14.05,15.32-2.11-6.99-7.33-12.63-14.05-15.32,6.72-2.7,11.94-8.33,14.05-15.32,2.11,6.99,7.33,12.64,14.05,15.32Z"/>
  </g>
  <g>
    <path class="cls-1" d="M819.81,365.88c.33,4.5,2.79,6.76,7.36,6.76v.91h-8.47c-2.49,0-4.74-.44-6.75-1.31-4.44-1.95-6.86-5.18-7.26-9.68v-.3l-3.53-48.1-18.15,37.11c.07.27.17.54.31.81,1.41,3.56,1.04,6.94-1.11,10.13-2.15,3.2-5.08,4.79-8.77,4.79h-.5c.34-.27.28-1.16-.15-2.67-.44-1.51-.92-2.87-1.46-4.08-.54-1.21-.87-1.95-1.01-2.22l-18.25-42.66-3.73,50.52v.91c0,3.9,2.49,5.85,7.46,5.85v.91h-15.83v-.91c4.7,0,7.19-2.25,7.46-6.76l3.63-50.42c0-4.57-2.45-6.86-7.36-6.86v-.91h20.67l18.15,42.56,20.77-42.56h20.17v.91c-4.9,0-7.36,2.25-7.36,6.76l3.73,50.52Z"/>
    <path class="cls-1" d="M796.8,289.86c-6.72,2.68-11.94,8.33-14.05,15.32-2.11-6.99-7.33-12.63-14.05-15.32,6.72-2.7,11.94-8.33,14.05-15.32,2.11,6.99,7.33,12.64,14.05,15.32Z"/>
  </g>
  <g>
    <path class="cls-1" d="M90.32,561.06c.33,4.5,2.79,6.76,7.36,6.76v.91h-8.47c-2.49,0-4.74-.44-6.75-1.31-4.44-1.95-6.86-5.18-7.26-9.68v-.3l-3.53-48.1-18.15,37.11c.07.27.17.54.31.81,1.41,3.56,1.04,6.94-1.11,10.13-2.15,3.2-5.08,4.79-8.77,4.79h-.5c.34-.27.28-1.16-.15-2.67-.44-1.51-.92-2.87-1.46-4.08-.54-1.21-.87-1.95-1.01-2.22l-18.25-42.66-3.73,50.52v.91c0,3.9,2.49,5.85,7.46,5.85v.91h-15.83v-.91c4.7,0,7.19-2.25,7.46-6.76l3.63-50.42c0-4.57-2.45-6.86-7.36-6.86v-.91h20.67l18.15,42.56,20.77-42.56h20.17v.91c-4.9,0-7.36,2.25-7.36,6.76l3.73,50.52Z"/>
    <path class="cls-1" d="M67.31,485.04c-6.72,2.68-11.94,8.33-14.05,15.32-2.11-6.99-7.33-12.63-14.05-15.32,6.72-2.7,11.94-8.33,14.05-15.32,2.11,6.99,7.33,12.64,14.05,15.32Z"/>
  </g>
  <g>
    <path class="cls-1" d="M171.38,496c.33,4.5,2.79,6.76,7.36,6.76v.91h-8.47c-2.49,0-4.74-.44-6.75-1.31-4.44-1.95-6.86-5.18-7.26-9.68v-.3l-3.53-48.1-18.15,37.11c.07.27.17.54.31.81,1.41,3.56,1.04,6.94-1.11,10.13-2.15,3.2-5.08,4.79-8.77,4.79h-.5c.34-.27.28-1.16-.15-2.67-.44-1.51-.92-2.87-1.46-4.08-.54-1.21-.87-1.95-1.01-2.22l-18.25-42.66-3.73,50.52v.91c0,3.9,2.49,5.85,7.46,5.85v.91h-15.83v-.91c4.7,0,7.19-2.25,7.46-6.76l3.63-50.42c0-4.57-2.45-6.86-7.36-6.86v-.91h20.67l18.15,42.56,20.77-42.56h20.17v.91c-4.9,0-7.36,2.25-7.36,6.76l3.73,50.52Z"/>
    <path class="cls-1" d="M148.37,419.98c-6.72,2.68-11.94,8.33-14.05,15.32-2.11-6.99-7.33-12.63-14.05-15.32,6.72-2.7,11.94-8.33,14.05-15.32,2.11,6.99,7.33,12.64,14.05,15.32Z"/>
  </g>
  <g>
    <path class="cls-1" d="M252.43,561.06c.33,4.5,2.79,6.76,7.36,6.76v.91h-8.47c-2.49,0-4.74-.44-6.75-1.31-4.44-1.95-6.86-5.18-7.26-9.68v-.3l-3.53-48.1-18.15,37.11c.07.27.17.54.31.81,1.41,3.56,1.04,6.94-1.11,10.13-2.15,3.2-5.08,4.79-8.77,4.79h-.5c.34-.27.28-1.16-.15-2.67-.44-1.51-.92-2.87-1.46-4.08-.54-1.21-.87-1.95-1.01-2.22l-18.25-42.66-3.73,50.52v.91c0,3.9,2.49,5.85,7.46,5.85v.91h-15.83v-.91c4.7,0,7.19-2.25,7.46-6.76l3.63-50.42c0-4.57-2.45-6.86-7.36-6.86v-.91h20.67l18.15,42.56,20.77-42.56h20.17v.91c-4.9,0-7.36,2.25-7.36,6.76l3.73,50.52Z"/>
    <path class="cls-1" d="M229.42,485.04c-6.72,2.68-11.94,8.33-14.05,15.32-2.11-6.99-7.33-12.63-14.05-15.32,6.72-2.7,11.94-8.33,14.05-15.32,2.11,6.99,7.33,12.64,14.05,15.32Z"/>
  </g>
  <g>
    <path class="cls-1" d="M333.48,496c.33,4.5,2.79,6.76,7.36,6.76v.91h-8.47c-2.49,0-4.74-.44-6.75-1.31-4.44-1.95-6.86-5.18-7.26-9.68v-.3l-3.53-48.1-18.15,37.11c.07.27.17.54.31.81,1.41,3.56,1.04,6.94-1.11,10.13-2.15,3.2-5.08,4.79-8.77,4.79h-.5c.34-.27.28-1.16-.15-2.67-.44-1.51-.92-2.87-1.46-4.08-.54-1.21-.87-1.95-1.01-2.22l-18.25-42.66-3.73,50.52v.91c0,3.9,2.49,5.85,7.46,5.85v.91h-15.83v-.91c4.7,0,7.19-2.25,7.46-6.76l3.63-50.42c0-4.57-2.45-6.86-7.36-6.86v-.91h20.67l18.15,42.56,20.77-42.56h20.17v.91c-4.9,0-7.36,2.25-7.36,6.76l3.73,50.52Z"/>
    <path class="cls-1" d="M310.48,419.98c-6.72,2.68-11.94,8.33-14.05,15.32-2.11-6.99-7.33-12.63-14.05-15.32,6.72-2.7,11.94-8.33,14.05-15.32,2.11,6.99,7.33,12.64,14.05,15.32Z"/>
  </g>
  <g>
    <path class="cls-1" d="M414.54,561.06c.33,4.5,2.79,6.76,7.36,6.76v.91h-8.47c-2.49,0-4.74-.44-6.75-1.31-4.44-1.95-6.86-5.18-7.26-9.68v-.3l-3.53-48.1-18.15,37.11c.07.27.17.54.31.81,1.41,3.56,1.04,6.94-1.11,10.13-2.15,3.2-5.08,4.79-8.77,4.79h-.5c.34-.27.28-1.16-.15-2.67-.44-1.51-.92-2.87-1.46-4.08-.54-1.21-.87-1.95-1.01-2.22l-18.25-42.66-3.73,50.52v.91c0,3.9,2.49,5.85,7.46,5.85v.91h-15.83v-.91c4.7,0,7.19-2.25,7.46-6.76l3.63-50.42c0-4.57-2.45-6.86-7.36-6.86v-.91h20.67l18.15,42.56,20.77-42.56h20.17v.91c-4.9,0-7.36,2.25-7.36,6.76l3.73,50.52Z"/>
    <path class="cls-1" d="M391.53,485.04c-6.72,2.68-11.94,8.33-14.05,15.32-2.11-6.99-7.33-12.63-14.05-15.32,6.72-2.7,11.94-8.33,14.05-15.32,2.11,6.99,7.33,12.64,14.05,15.32Z"/>
  </g>
  <g>
    <path class="cls-1" d="M495.59,496c.33,4.5,2.79,6.76,7.36,6.76v.91h-8.47c-2.49,0-4.74-.44-6.75-1.31-4.44-1.95-6.86-5.18-7.26-9.68v-.3l-3.53-48.1-18.15,37.11c.07.27.17.54.31.81,1.41,3.56,1.04,6.94-1.11,10.13-2.15,3.2-5.08,4.79-8.77,4.79h-.5c.34-.27.28-1.16-.15-2.67-.44-1.51-.92-2.87-1.46-4.08-.54-1.21-.87-1.95-1.01-2.22l-18.25-42.66-3.73,50.52v.91c0,3.9,2.49,5.85,7.46,5.85v.91h-15.83v-.91c4.7,0,7.19-2.25,7.46-6.76l3.63-50.42c0-4.57-2.45-6.86-7.36-6.86v-.91h20.67l18.15,42.56,20.77-42.56h20.17v.91c-4.9,0-7.36,2.25-7.36,6.76l3.73,50.52Z"/>
    <path class="cls-1" d="M472.58,419.98c-6.72,2.68-11.94,8.33-14.05,15.32-2.11-6.99-7.33-12.63-14.05-15.32,6.72-2.7,11.94-8.33,14.05-15.32,2.11,6.99,7.33,12.64,14.05,15.32Z"/>
  </g>
  <g>
    <path class="cls-1" d="M576.65,561.06c.33,4.5,2.79,6.76,7.36,6.76v.91h-8.47c-2.49,0-4.74-.44-6.75-1.31-4.44-1.95-6.86-5.18-7.26-9.68v-.3l-3.53-48.1-18.15,37.11c.07.27.17.54.31.81,1.41,3.56,1.04,6.94-1.11,10.13-2.15,3.2-5.08,4.79-8.77,4.79h-.5c.34-.27.28-1.16-.15-2.67-.44-1.51-.92-2.87-1.46-4.08-.54-1.21-.87-1.95-1.01-2.22l-18.25-42.66-3.73,50.52v.91c0,3.9,2.49,5.85,7.46,5.85v.91h-15.83v-.91c4.7,0,7.19-2.25,7.46-6.76l3.63-50.42c0-4.57-2.45-6.86-7.36-6.86v-.91h20.67l18.15,42.56,20.77-42.56h20.17v.91c-4.9,0-7.36,2.25-7.36,6.76l3.73,50.52Z"/>
    <path class="cls-1" d="M553.64,485.04c-6.72,2.68-11.94,8.33-14.05,15.32-2.11-6.99-7.33-12.63-14.05-15.32,6.72-2.7,11.94-8.33,14.05-15.32,2.11,6.99,7.33,12.64,14.05,15.32Z"/>
  </g>
  <g>
    <path class="cls-1" d="M657.7,496c.33,4.5,2.79,6.76,7.36,6.76v.91h-8.47c-2.49,0-4.74-.44-6.75-1.31-4.44-1.95-6.86-5.18-7.26-9.68v-.3l-3.53-48.1-18.15,37.11c.07.27.17.54.31.81,1.41,3.56,1.04,6.94-1.11,10.13-2.15,3.2-5.08,4.79-8.77,4.79h-.5c.34-.27.28-1.16-.15-2.67-.44-1.51-.92-2.87-1.46-4.08-.54-1.21-.87-1.95-1.01-2.22l-18.25-42.66-3.73,50.52v.91c0,3.9,2.49,5.85,7.46,5.85v.91h-15.83v-.91c4.7,0,7.19-2.25,7.46-6.76l3.63-50.42c0-4.57-2.45-6.86-7.36-6.86v-.91h20.67l18.15,42.56,20.77-42.56h20.17v.91c-4.9,0-7.36,2.25-7.36,6.76l3.73,50.52Z"/>
    <path class="cls-1" d="M634.69,419.98c-6.72,2.68-11.94,8.33-14.05,15.32-2.11-6.99-7.33-12.63-14.05-15.32,6.72-2.7,11.94-8.33,14.05-15.32,2.11,6.99,7.33,12.64,14.05,15.32Z"/>
  </g>
  <g>
    <path class="cls-1" d="M738.75,561.06c.33,4.5,2.79,6.76,7.36,6.76v.91h-8.47c-2.49,0-4.74-.44-6.75-1.31-4.44-1.95-6.86-5.18-7.26-9.68v-.3l-3.53-48.1-18.15,37.11c.07.27.17.54.31.81,1.41,3.56,1.04,6.94-1.11,10.13-2.15,3.2-5.08,4.79-8.77,4.79h-.5c.34-.27.28-1.16-.15-2.67-.44-1.51-.92-2.87-1.46-4.08-.54-1.21-.87-1.95-1.01-2.22l-18.25-42.66-3.73,50.52v.91c0,3.9,2.49,5.85,7.46,5.85v.91h-15.83v-.91c4.7,0,7.19-2.25,7.46-6.76l3.63-50.42c0-4.57-2.45-6.86-7.36-6.86v-.91h20.67l18.15,42.56,20.77-42.56h20.17v.91c-4.9,0-7.36,2.25-7.36,6.76l3.73,50.52Z"/>
    <path class="cls-1" d="M715.75,485.04c-6.72,2.68-11.94,8.33-14.05,15.32-2.11-6.99-7.33-12.63-14.05-15.32,6.72-2.7,11.94-8.33,14.05-15.32,2.11,6.99,7.33,12.64,14.05,15.32Z"/>
  </g>
  <g>
    <path class="cls-1" d="M819.81,496c.33,4.5,2.79,6.76,7.36,6.76v.91h-8.47c-2.49,0-4.74-.44-6.75-1.31-4.44-1.95-6.86-5.18-7.26-9.68v-.3l-3.53-48.1-18.15,37.11c.07.27.17.54.31.81,1.41,3.56,1.04,6.94-1.11,10.13-2.15,3.2-5.08,4.79-8.77,4.79h-.5c.34-.27.28-1.16-.15-2.67-.44-1.51-.92-2.87-1.46-4.08-.54-1.21-.87-1.95-1.01-2.22l-18.25-42.66-3.73,50.52v.91c0,3.9,2.49,5.85,7.46,5.85v.91h-15.83v-.91c4.7,0,7.19-2.25,7.46-6.76l3.63-50.42c0-4.57-2.45-6.86-7.36-6.86v-.91h20.67l18.15,42.56,20.77-42.56h20.17v.91c-4.9,0-7.36,2.25-7.36,6.76l3.73,50.52Z"/>
    <path class="cls-1" d="M796.8,419.98c-6.72,2.68-11.94,8.33-14.05,15.32-2.11-6.99-7.33-12.63-14.05-15.32,6.72-2.7,11.94-8.33,14.05-15.32,2.11,6.99,7.33,12.64,14.05,15.32Z"/>
  </g>
  <path class="cls-1" d="M148.37,550.1c-6.72,2.68-11.94,8.33-14.05,15.32-2.11-6.99-7.33-12.63-14.05-15.32,6.72-2.7,11.94-8.33,14.05-15.32,2.11,6.99,7.33,12.64,14.05,15.32Z"/>
  <path class="cls-1" d="M310.48,550.1c-6.72,2.68-11.94,8.33-14.05,15.32-2.11-6.99-7.33-12.63-14.05-15.32,6.72-2.7,11.94-8.33,14.05-15.32,2.11,6.99,7.33,12.64,14.05,15.32Z"/>
  <path class="cls-1" d="M472.58,550.1c-6.72,2.68-11.94,8.33-14.05,15.32-2.11-6.99-7.33-12.63-14.05-15.32,6.72-2.7,11.94-8.33,14.05-15.32,2.11,6.99,7.33,12.64,14.05,15.32Z"/>
  <path class="cls-1" d="M634.69,550.1c-6.72,2.68-11.94,8.33-14.05,15.32-2.11-6.99-7.33-12.63-14.05-15.32,6.72-2.7,11.94-8.33,14.05-15.32,2.11,6.99,7.33,12.64,14.05,15.32Z"/>
  <path class="cls-1" d="M796.8,550.1c-6.72,2.68-11.94,8.33-14.05,15.32-2.11-6.99-7.33-12.63-14.05-15.32,6.72-2.7,11.94-8.33,14.05-15.32,2.11,6.99,7.33,12.64,14.05,15.32Z"/>
</svg>