<?xml version="1.0" encoding="UTF-8"?>
<svg id="Layer_1" data-name="Layer 1" xmlns="http://www.w3.org/2000/svg" viewBox="0 0 841.89 595.28">
  <defs>
    <style>
      .cls-1 {
        fill: #575756;
      }

      .cls-1, .cls-2, .cls-3 {
        stroke-width: 0px;
      }

      .cls-2 {
        fill: #cbc5c5;
      }

      .cls-3 {
        fill: #fad;
      }
    </style>
  </defs>
  <g>
    <g>
      <path class="cls-3" d="M445.03,256.08c0,15.98-1.98,28.1-5.95,36.36-4.83,10.29-13.19,15.44-25.1,15.44-4.9,0-8.93-1.27-12.09-3.8,10.66-2.28,18.66-5.85,24-10.72,6.66-6.18,11.37-18.5,14.14-36.96,1.42-9.51,3.09-18.13,5-25.87v25.55Z"/>
      <path class="cls-3" d="M463.99,193.78c-4.45,2.87-7.53,5.84-9.26,8.93-.13.25-.25.5-.37.76h4.03v1.45c-1.9,0-3.57.21-5.01.62-2.55,5.58-4.85,12.06-6.9,19.45v30.93c0,15.58-1.81,27.64-5.44,36.16,6.99-9.76,12.82-22.14,17.5-37.14,5.42-22.8,10.89-45.62,16.41-68.47-.49.59-4.14,3.03-10.96,7.31Z"/>
    </g>
    <g>
      <path class="cls-1" d="M339.77,360.72l-2.13,4.56h-1.38l8.45-18.18,7.98,18.18h-1.35l-2.02-4.56h-9.56ZM344.66,350.17l-4.31,9.31h8.43l-4.12-9.31Z"/>
      <path class="cls-1" d="M364.88,365.28v-17.96h1.24v16.71h10.08v1.24h-11.33Z"/>
      <path class="cls-1" d="M423.97,365.28v-14.2l-7.96,11.35-8.07-11.38v14.23h-1.24v-18.18l9.31,13.15,9.2-13.15v18.18h-1.24Z"/>
      <path class="cls-1" d="M445.4,365.48c-.9,0-1.77-.18-2.61-.54-.84-.36-1.58-.87-2.22-1.53-.64-.63-1.14-1.36-1.48-2.21s-.51-1.74-.51-2.68v-11.19h1.24v11.19c0,.77.14,1.51.43,2.21.29.7.69,1.31,1.2,1.82.53.53,1.14.94,1.82,1.23.68.29,1.39.43,2.13.43s1.47-.14,2.15-.43c.68-.29,1.29-.69,1.82-1.23.52-.52.92-1.12,1.2-1.82.29-.7.43-1.44.43-2.21v-11.19h1.24v11.19c0,.94-.17,1.83-.51,2.68-.34.85-.83,1.58-1.48,2.21-.64.66-1.38,1.17-2.21,1.53-.83.36-1.71.54-2.65.54Z"/>
      <path class="cls-1" d="M477.27,358.34c.47.69.7,1.43.7,2.22,0,.68-.17,1.33-.5,1.95-.33.62-.81,1.16-1.44,1.62-1.29.92-2.79,1.38-4.5,1.38-.85,0-1.66-.12-2.43-.36-.77-.24-1.46-.58-2.07-1.02-1.05-.77-1.68-1.72-1.91-2.84l1.19-.66c.06,1.01.55,1.84,1.49,2.49.48.37,1.04.65,1.68.84.64.19,1.33.29,2.04.29,1.47,0,2.72-.38,3.73-1.13.98-.72,1.46-1.56,1.46-2.54,0-.57-.18-1.1-.54-1.6-.36-.5-.86-.92-1.51-1.27-.61-.31-1.69-.56-3.26-.75-.13-.02-.59-.09-1.39-.22-.8-.13-1.49-.33-2.06-.61-.9-.44-1.61-1.03-2.13-1.75-.52-.73-.77-1.51-.77-2.36,0-.68.17-1.32.51-1.92.34-.6.82-1.13,1.45-1.59.61-.44,1.3-.78,2.07-1.02s1.58-.36,2.43-.36c1.71,0,3.21.46,4.5,1.38,1.07.81,1.69,1.75,1.88,2.82l-1.19.66c-.02-.46-.15-.9-.4-1.33-.25-.42-.6-.81-1.06-1.16-.5-.37-1.07-.65-1.71-.84-.65-.19-1.32-.29-2.02-.29s-1.38.1-2.03.29c-.65.19-1.22.47-1.7.84-.48.35-.85.74-1.11,1.17-.26.43-.39.88-.39,1.34,0,.57.21,1.14.64,1.7.42.56.95,1,1.57,1.31.39.18.81.32,1.28.4s1.07.17,1.81.26c.13.02.45.06.97.14.52.07,1.01.17,1.49.3.48.13.88.29,1.22.47.85.48,1.51,1.06,1.98,1.75Z"/>
      <path class="cls-1" d="M490.93,365.28v-17.96h11.63v1.27h-10.39v7.07h8.09v1.27h-8.09v7.04h10.39v1.3h-11.63Z"/>
      <path class="cls-2" d="M324.8,362.28h-111.37c-.55,0-1-.45-1-1s.45-1,1-1h111.37c.55,0,1,.45,1,1s-.45,1-1,1Z"/>
      <path class="cls-2" d="M627.74,362.28h-111.37c-.55,0-1-.45-1-1s.45-1,1-1h111.37c.55,0,1,.45,1,1s-.45,1-1,1Z"/>
    </g>
    <g>
      <g>
        <path class="cls-1" d="M523.27,258.2c9.97,7.4,14.96,15.87,14.96,25.42,0,8.15-4.4,14.7-13.19,19.63-7.51,4.18-17.05,6.27-28.63,6.27-7.4,0-13.78-1.82-19.14-5.47-1.5-1.07-2.9-1.61-4.18-1.61-2.04,0-3.59,1.23-4.67,3.71-.32.75-.48,1.61-.48,2.57h-1.45l.48-24.13h1.45c0,1.28.27,2.79.81,4.51,1.18,4.29,3.75,8.36,7.72,12.22,2.04,1.93,4.75,3.54,8.12,4.83,3.38,1.28,7.16,1.93,11.34,1.93,5.47,0,9.81-1.45,13.03-4.35,3.43-2.9,5.15-6.49,5.15-10.78,0-6.76-2.04-11.96-6.11-15.61l-28.31-24.93c-8.8-7.62-13.19-16.14-13.19-25.58,0-7.29,3.59-13.25,10.78-17.86,6.33-4.07,14.1-6.11,23.33-6.11,4.72,0,8.79.64,12.23,1.93,3.43,1.28,6.7,1.93,9.81,1.93,1.72,0,3.16-.27,4.34-.81,1.18-.53,1.77-1.28,1.77-2.25h1.45v23.81h-1.45c0-1.71-.4-3.7-1.21-5.95-.81-2.25-2.12-4.74-3.94-7.48-1.82-2.73-4.72-5.04-8.69-6.92-3.97-1.88-8.63-2.81-14-2.81-10.08,0-15.12,3.65-15.12,10.94,0,6.86,2.89,12.87,8.69,18.01l28.31,24.94Z"/>
        <path class="cls-1" d="M627.16,285.36c-.85,14.48-7.02,21.72-18.5,21.72h-28.79v-102.16h27.35c11.47,0,17.64,7.24,18.5,21.72h1.44v-23.17h-82.85v1.45c2.36,0,4.53.32,6.52.96,1.98.65,3.38,1.21,4.18,1.69.81.48,1.21.67,1.21.56v82.86c0,7.72,4.12,13.03,12.39,15.92,2.89,1.08,6.16,1.61,9.81,1.61h50.35v-23.16h-1.61Z"/>
        <path class="cls-1" d="M343.45,303.62h-.01c-1.5-1.77-2.37-4.21-2.6-7.32l-1.32-17.93-.88-11.83-3.75-50.84c0-7.19,3.92-10.78,11.75-10.78v-1.45h-32.18l-33.14,67.89-28.96-67.89h-32.98v1.45c7.83,0,11.75,3.64,11.75,10.94l-5.8,80.44c-.43,7.18-4.4,10.78-11.9,10.78v1.44h25.26v-1.44c-7.94,0-11.91-3.11-11.91-9.33v-1.45l5.95-80.6,29.12,68.05c.22.43.75,1.61,1.61,3.54.86,1.93,1.64,4.1,2.33,6.51.7,2.42.78,3.84.25,4.27h.8c5.9,0,10.56-2.55,14-7.65,3.43-5.09,4.02-10.48,1.77-16.16-.22-.43-.38-.86-.49-1.29l28.96-59.2,5.08,69.2.55,7.53v.49c.65,7.18,4.51,12.33,11.59,15.44,3.21,1.4,6.81,2.09,10.78,2.09h13.51v-1.44c-4.13,0-7.18-1.16-9.14-3.46Z"/>
        <path class="cls-1" d="M433.13,203.47v1.45c7.93,0,11.9,3.64,11.9,10.94v40.22c0,15.98-1.98,28.1-5.95,36.36-4.83,10.29-13.19,15.44-25.1,15.44-4.9,0-8.93-1.27-12.09-3.8-5.77-4.61-8.66-13.43-8.66-26.45v-56.95c-.11-7.08-3.49-12.17-10.13-15.28-3.01-1.39-6.44-2.09-10.3-2.09l-15.12.16v1.45c7.93,0,11.9,3.59,11.9,10.78v43.43c0,3.33.14,6.49.41,9.47,1.04,11.4,4.06,20.2,9.08,26.41,3.77,4.66,8.47,8.19,14.1,10.56h.01c5.91,2.51,12.84,3.76,20.8,3.76,5.02,0,9.46-.86,13.3-2.58,5.75-2.57,10.16-7.08,13.25-13.51.17-.37.34-.76.51-1.15h0c3.63-8.53,5.44-20.59,5.44-36.17v-40.22c0-5.47,2.3-8.86,6.9-10.16,1.44-.41,3.11-.62,5.01-.62v-1.45h-25.26Z"/>
      </g>
      <path class="cls-3" d="M614.88,241.42c-4.78,1.91-8.49,5.93-9.99,10.9-1.5-4.97-5.22-8.98-9.99-10.9,4.78-1.92,8.49-5.93,9.99-10.9,1.5,4.97,5.22,8.99,9.99,10.9Z"/>
    </g>
    <g>
      <path class="cls-3" d="M528.31,186.71c-.11.61-1.54,7.2-4.32,19.79-.29.02-.58.03-.89.03-3.11,0-6.38-.65-9.81-1.93-1.65-.62-3.46-1.09-5.41-1.41.19-.45.37-.85.53-1.21,1.63-3.36,4.61-6.33,8.94-8.93,3.62-2.17,7.28-4.28,10.96-6.34Z"/>
      <path class="cls-3" d="M522.75,212.16c-1.18,5.35-2.55,11.54-4.1,18.57-1.54,6.88-3.15,13.2-4.82,18.97h0c-.05.19-.11.38-.17.58-.06.19-.12.39-.17.58-.06.19-.12.38-.17.57-.36,1.19-.72,2.36-1.07,3.5-.15.45-.29.9-.43,1.35-.43,1.31-.86,2.58-1.29,3.82-.14.42-.28.83-.43,1.23-1.59,4.47-3.23,8.49-4.93,12.04-.1.2-.21.39-.32.59-1.77,3.07-4.66,5.79-8.69,8.19-3.52,2.11-7.1,4.25-10.72,6.41v-1.7c0-3.43,1.72-11.91,5.17-25.44,1.28-5.06,2.81-10.82,4.57-17.29.22-.76.43-1.52.64-2.26.42-1.49.84-2.94,1.24-4.35.1-.35.2-.7.3-1.05.1-.34.2-.68.3-1.02h0s0-.01,0-.01c4.35-15.12,7.59-25.42,9.7-30.9,2.94.45,5.62,1.24,8.04,2.39,3.12,1.48,5.58,3.22,7.37,5.23Z"/>
    </g>
  </g>
  <path class="cls-3" d="M427.28,306.75c-15.33,12.19-36.74,18.28-64.25,18.28-10.35,0-20.74-1.68-31.19-5.03-14.08-4.77-21.12-11.27-21.12-19.5,0-6.52,1.82-12.36,5.44-17.53,4.15-5.92,10.68-10.96,19.58-15.12.96-.46,1.93-.9,2.9-1.31,9.71-4.23,20.02-6.77,30.94-7.63h0c3.15-.24,6.35-.35,9.61-.32-.32.33-3.09,3.33-8.28,9.02-.31.35-.62.67-.92.99-3.08,3.27-5.79,5.35-8.1,6.24-6.82,1.19-13.73,2.27-20.71,3.25-.57.09-1.12.18-1.66.28-.59.11-1.16.22-1.71.34-.6.13-1.17.26-1.73.4-.37.1-.74.19-1.09.29-.36.1-.7.2-1.04.31-.33.1-.65.21-.97.32-.32.11-.63.22-.93.34-.04.02-.08.03-.12.05-.22.08-.42.16-.63.25-.4.17-.79.34-1.17.53t0,0c-.38.18-.74.37-1.08.57-.34.19-.67.39-.98.61-.2.12-.39.26-.57.39-.19.14-.37.28-.54.43-.11.09-.22.18-.33.28-.13.12-.27.24-.39.37-.11.1-.22.21-.32.32-.03.03-.07.07-.1.11-.1.11-.19.22-.28.33-.11.13-.21.26-.31.39-.2.27-.38.55-.55.83-.16.28-.3.57-.43.87-.06.15-.12.3-.17.45-.06.15-.1.3-.15.45-.04.15-.08.31-.12.47,2.33,6.82,8.58,11.91,18.76,15.26.29.1.58.19.88.27h.01c7.4,2.32,15.46,3.47,24.21,3.47,9.53,0,18.03-.5,25.51-1.51h.01c5.91,2.51,12.84,3.76,20.8,3.76,5.02,0,9.46-.86,13.3-2.58Z"/>
  <g>
    <path class="cls-1" d="M208.18,407.74v-11.9h7.7v.84h-6.88v4.69h5.36v.84h-5.36v4.67h6.88v.86h-7.7Z"/>
    <path class="cls-1" d="M228.02,395.85l-4.25,5.95,4.25,5.95h-1.01l-3.73-5.25-3.73,5.25h-1.01l4.25-5.95-4.25-5.95h1.01l3.73,5.25,3.73-5.25h1.01Z"/>
    <path class="cls-1" d="M234.87,407.87c-1.09,0-2.09-.27-3.02-.82-.93-.55-1.66-1.29-2.2-2.22-.54-.93-.81-1.95-.81-3.05s.27-2.11.81-3.04c.54-.93,1.27-1.67,2.2-2.21.93-.55,1.93-.82,3.02-.82.84,0,1.65.17,2.42.52.77.35,1.46.84,2.04,1.47l-.64.57c-.49-.55-1.06-.98-1.73-1.28-.67-.31-1.36-.46-2.1-.46-.94,0-1.81.23-2.6.7s-1.42,1.11-1.89,1.91c-.47.81-.7,1.68-.7,2.64s.23,1.83.7,2.64c.47.81,1.1,1.44,1.89,1.91.79.47,1.66.7,2.6.7.78,0,1.52-.17,2.22-.51.7-.34,1.3-.82,1.8-1.43l.66.51c-.57.72-1.27,1.28-2.09,1.67-.82.4-1.68.59-2.6.59Z"/>
    <path class="cls-1" d="M242.22,407.74v-11.9h.82v11.07h6.68v.82h-7.5Z"/>
    <path class="cls-1" d="M256.94,407.87c-.6,0-1.17-.12-1.73-.36-.56-.24-1.05-.58-1.47-1.02-.43-.41-.75-.9-.98-1.46-.23-.56-.34-1.15-.34-1.77v-7.41h.82v7.41c0,.51.09,1,.28,1.46.19.46.45.87.8,1.21.35.35.76.62,1.21.81.45.19.92.28,1.41.28s.98-.09,1.43-.28c.45-.19.85-.46,1.21-.81.34-.34.61-.74.8-1.21.19-.46.28-.95.28-1.46v-7.41h.82v7.41c0,.62-.11,1.21-.34,1.77-.23.56-.55,1.05-.98,1.46-.43.44-.91.78-1.46,1.02-.55.24-1.13.36-1.76.36Z"/>
    <path class="cls-1" d="M272.56,403.14c.31.46.47.95.47,1.47,0,.45-.11.88-.33,1.29-.22.41-.54.77-.95,1.07-.85.61-1.85.92-2.98.92-.56,0-1.1-.08-1.61-.24-.51-.16-.97-.38-1.37-.68-.7-.51-1.12-1.14-1.26-1.88l.79-.44c.04.67.37,1.22.99,1.65.32.24.69.43,1.12.56.43.13.88.19,1.35.19.98,0,1.8-.25,2.47-.75.65-.48.97-1.04.97-1.68,0-.38-.12-.73-.36-1.06-.24-.33-.57-.61-1-.84-.4-.21-1.12-.37-2.16-.49-.09-.01-.39-.06-.92-.15-.53-.09-.99-.22-1.36-.4-.6-.29-1.07-.68-1.41-1.16-.34-.48-.51-1-.51-1.56,0-.45.11-.88.34-1.27.23-.4.55-.75.96-1.05.4-.29.86-.52,1.37-.68.51-.16,1.05-.24,1.61-.24,1.13,0,2.13.31,2.98.92.71.54,1.12,1.16,1.24,1.87l-.79.44c-.01-.3-.1-.6-.27-.88-.16-.28-.4-.54-.7-.77-.33-.24-.71-.43-1.13-.56-.43-.13-.87-.19-1.34-.19s-.91.06-1.34.19c-.43.13-.81.31-1.13.56-.32.23-.56.49-.73.78-.17.29-.26.58-.26.89,0,.38.14.75.42,1.13.28.37.63.66,1.04.87.26.12.54.21.85.27.31.06.71.11,1.2.17.08.01.3.04.64.09.34.05.67.12.99.2.32.09.59.19.81.31.56.32,1,.7,1.31,1.16Z"/>
    <path class="cls-1" d="M276.33,407.74v-11.9h.82v11.9h-.82Z"/>
    <path class="cls-1" d="M285.26,405.89l4.5-10.05h.92l-5.42,12.1-5.4-12.1h.9l4.5,10.05Z"/>
    <path class="cls-1" d="M293.26,407.74v-11.9h7.7v.84h-6.88v4.69h5.36v.84h-5.36v4.67h6.88v.86h-7.7Z"/>
    <polygon class="cls-1" points="310.07 408.03 310.07 395.56 318.34 395.56 318.34 396.97 311.46 396.97 311.46 401.09 316.82 401.09 316.82 402.5 311.46 402.5 311.46 406.6 318.34 406.6 318.34 408.03 310.07 408.03"/>
    <path class="cls-1" d="M310.35,407.74v-11.9h7.7v.84h-6.88v4.69h5.36v.84h-5.36v4.67h6.88v.86h-7.7Z"/>
    <polygon class="cls-1" points="332.36 408.03 332.36 399.23 327.37 406.35 322.31 399.21 322.31 408.03 320.92 408.03 320.92 394.81 327.37 403.92 333.75 394.8 333.75 408.03 332.36 408.03"/>
    <path class="cls-1" d="M332.64,407.74v-9.41l-5.27,7.52-5.34-7.54v9.42h-.82v-12.04l6.17,8.71,6.09-8.71v12.04h-.82Z"/>
    <path class="cls-1" d="M336.73,408.03l-.02-12.46h4.53c.74,0,1.43.16,2.06.49.63.33,1.14.77,1.51,1.32.38.56.57,1.18.57,1.84s-.19,1.27-.57,1.83c-.37.56-.88,1-1.51,1.33-.63.32-1.32.49-2.06.49h-3.12v5.16h-1.39ZM341.24,401.44c.5,0,.97-.1,1.39-.31.42-.2.75-.48,1-.83.24-.34.36-.69.36-1.09s-.12-.77-.36-1.11c-.25-.34-.58-.62-1-.82-.42-.21-.89-.31-1.39-.31h-3.14l.02,4.47h3.12Z"/>
    <path class="cls-1" d="M337.02,407.74l-.02-11.9h4.25c.7,0,1.34.15,1.93.46.59.31,1.06.71,1.41,1.23.35.51.52,1.07.52,1.68s-.17,1.16-.52,1.67c-.35.52-.82.93-1.41,1.24-.59.31-1.23.46-1.93.46h-3.4v5.16h-.82ZM337.84,401.72h3.4c.55,0,1.05-.11,1.52-.34.46-.23.83-.53,1.11-.92.27-.38.41-.8.41-1.25s-.14-.89-.41-1.27c-.27-.38-.64-.69-1.11-.92-.46-.23-.97-.34-1.52-.34h-3.42l.02,5.03Z"/>
    <path class="cls-1" d="M353.16,408.15c-1.13,0-2.2-.29-3.16-.85-.97-.57-1.74-1.35-2.3-2.32-.56-.97-.84-2.04-.84-3.19s.28-2.22.84-3.19c.56-.97,1.33-1.75,2.3-2.32.97-.57,2.03-.85,3.16-.85s2.2.29,3.16.85c.97.57,1.74,1.35,2.3,2.32.56.97.84,2.05.84,3.19s-.28,2.22-.84,3.19c-.56.97-1.33,1.75-2.3,2.32-.97.57-2.03.85-3.16.85ZM353.16,396.84c-.88,0-1.71.22-2.45.66-.75.44-1.35,1.05-1.79,1.8-.44.75-.66,1.59-.66,2.48s.22,1.73.66,2.48c.44.75,1.05,1.36,1.79,1.8.74.44,1.57.67,2.45.67s1.71-.22,2.45-.66c.75-.44,1.35-1.05,1.78-1.8.44-.75.66-1.59.66-2.48s-.22-1.73-.66-2.48c-.44-.75-1.04-1.36-1.78-1.8-.75-.44-1.57-.66-2.45-.66Z"/>
    <path class="cls-1" d="M353.16,407.87c-1.09,0-2.09-.27-3.02-.81-.93-.54-1.66-1.28-2.2-2.21-.54-.93-.81-1.95-.81-3.05s.27-2.11.81-3.05c.54-.93,1.27-1.67,2.2-2.21.93-.54,1.93-.81,3.02-.81s2.09.27,3.02.81c.93.54,1.66,1.28,2.2,2.21.54.93.81,1.95.81,3.05s-.27,2.11-.81,3.05c-.54.93-1.27,1.67-2.2,2.21-.93.54-1.93.81-3.02.81ZM353.16,396.56c-.94,0-1.81.23-2.6.7s-1.42,1.1-1.89,1.9c-.47.8-.7,1.67-.7,2.63s.23,1.83.7,2.63c.47.8,1.1,1.43,1.89,1.9.79.47,1.66.7,2.6.7s1.81-.23,2.6-.7c.79-.47,1.42-1.1,1.89-1.9.46-.8.7-1.67.7-2.63s-.23-1.83-.7-2.63c-.46-.8-1.09-1.43-1.89-1.9-.79-.47-1.66-.7-2.6-.7Z"/>
    <polygon class="cls-1" points="367.54 399.88 364.09 408.8 359.96 395.56 361.42 395.56 364.22 404.56 367.54 395.99 370.82 404.52 373.59 395.56 375.06 395.56 370.95 408.81 367.54 399.88"/>
    <path class="cls-1" d="M370.85,405.38l2.95-9.53h.88l-3.75,12.1-3.39-8.86-3.42,8.86-3.77-12.1h.86l2.98,9.57,3.35-8.64,3.31,8.6Z"/>
    <polygon class="cls-1" points="376.97 408.03 376.97 395.56 385.25 395.56 385.25 396.97 378.37 396.97 378.37 401.09 383.73 401.09 383.73 402.5 378.37 402.5 378.37 406.6 385.25 406.6 385.25 408.03 376.97 408.03"/>
    <path class="cls-1" d="M377.26,407.74v-11.9h7.7v.84h-6.88v4.69h5.36v.84h-5.36v4.67h6.88v.86h-7.7Z"/>
    <path class="cls-1" d="M394.99,408.03l-5.41-6.57h2.06c.86,0,1.56-.11,2.09-.33.36-.17.69-.44.96-.8.27-.35.4-.72.4-1.14,0-.37-.11-.72-.34-1.06-.23-.34-.56-.63-.99-.85-.43-.22-.94-.33-1.52-.33h-3.05v11.07h-1.39v-12.46h4.44c.59,0,1.15.1,1.67.28.52.19.98.46,1.37.82.38.34.68.73.88,1.17.21.44.31.9.31,1.37,0,.73-.22,1.39-.66,1.97-.43.57-.95.98-1.54,1.23-.4.18-.8.29-1.18.34-.19.02-.39.04-.59.05l4.31,5.23h-1.83Z"/>
    <path class="cls-1" d="M395.12,407.74l-4.94-6h1.46c.9,0,1.63-.12,2.2-.35.41-.19.77-.49,1.08-.89.3-.4.46-.83.46-1.31,0-.43-.13-.83-.38-1.22-.26-.38-.62-.7-1.1-.94-.48-.24-1.02-.37-1.65-.37h-3.33v11.07h-.82v-11.9h4.15c.56,0,1.09.09,1.57.27.49.18.92.43,1.28.76.35.32.62.68.81,1.08.19.4.28.82.28,1.24,0,.67-.2,1.27-.6,1.8-.4.53-.88.91-1.43,1.14-.38.17-.75.28-1.11.32-.36.04-.74.06-1.14.06l4.3,5.22h-1.1Z"/>
    <polygon class="cls-1" points="410.57 408.03 410.57 399.23 405.59 406.35 400.53 399.21 400.53 408.03 399.14 408.03 399.14 394.81 405.59 403.92 411.96 394.8 411.96 408.03 410.57 408.03"/>
    <path class="cls-1" d="M410.86,407.74v-9.41l-5.27,7.52-5.34-7.54v9.42h-.82v-12.04l6.17,8.71,6.09-8.71v12.04h-.82Z"/>
    <polygon class="cls-1" points="414.93 408.03 414.93 395.56 423.2 395.56 423.2 396.97 416.32 396.97 416.32 401.09 421.68 401.09 421.68 402.5 416.32 402.5 416.32 406.6 423.2 406.6 423.2 408.03 414.93 408.03"/>
    <path class="cls-1" d="M415.21,407.74v-11.9h7.7v.84h-6.88v4.69h5.36v.84h-5.36v4.67h6.88v.86h-7.7Z"/>
    <polygon class="cls-1" points="427.17 398.86 427.17 408.03 425.78 408.03 425.78 394.92 434.02 404.77 434.02 395.56 435.41 395.56 435.41 408.72 427.17 398.86"/>
    <path class="cls-1" d="M426.89,398.08v9.66h-.82v-12.04l8.23,9.85v-9.7h.82v12.1l-8.23-9.86Z"/>
    <polygon class="cls-1" points="442.12 408.03 442.12 396.97 437.4 396.97 437.4 395.56 448.23 395.56 448.23 396.97 443.53 396.97 443.53 408.03 442.12 408.03"/>
    <path class="cls-1" d="M447.95,395.85v.84h-4.7v11.05h-.84v-11.05h-4.72v-.84h10.27Z"/>
    <path class="cls-1" d="M450.66,406.86h.95l-.91,1.77h-.64l.6-1.77Z"/>
    <path class="cls-1" d="M461,407.74v-11.9h.82v11.9h-.82Z"/>
    <path class="cls-1" d="M466.4,398.08v9.66h-.82v-12.04l8.23,9.85v-9.7h.82v12.1l-8.23-9.86Z"/>
    <path class="cls-1" d="M483.42,407.87c-1.09,0-2.09-.27-3.02-.82-.93-.55-1.66-1.29-2.2-2.22-.54-.93-.81-1.95-.81-3.05s.27-2.11.81-3.04c.54-.93,1.27-1.67,2.2-2.21.93-.55,1.93-.82,3.02-.82.84,0,1.65.17,2.42.52.77.35,1.46.84,2.04,1.47l-.64.57c-.49-.55-1.06-.98-1.73-1.28-.67-.31-1.36-.46-2.1-.46-.94,0-1.81.23-2.6.7s-1.42,1.11-1.89,1.91c-.47.81-.7,1.68-.7,2.64s.23,1.83.7,2.64c.47.81,1.1,1.44,1.89,1.91.79.47,1.66.7,2.6.7.78,0,1.52-.17,2.22-.51.7-.34,1.3-.82,1.8-1.43l.66.51c-.57.72-1.27,1.28-2.09,1.67-.82.4-1.68.59-2.6.59Z"/>
    <path class="cls-1" d="M490.77,407.74v-11.9h.82v11.07h6.68v.82h-7.5Z"/>
    <path class="cls-1" d="M505.49,407.87c-.6,0-1.17-.12-1.73-.36-.56-.24-1.05-.58-1.47-1.02-.43-.41-.75-.9-.98-1.46-.23-.56-.34-1.15-.34-1.77v-7.41h.82v7.41c0,.51.09,1,.28,1.46.19.46.45.87.8,1.21.35.35.76.62,1.21.81.45.19.92.28,1.41.28s.98-.09,1.43-.28c.45-.19.85-.46,1.21-.81.34-.34.61-.74.8-1.21.19-.46.28-.95.28-1.46v-7.41h.82v7.41c0,.62-.11,1.21-.34,1.77-.23.56-.55,1.05-.98,1.46-.43.44-.91.78-1.46,1.02-.55.24-1.13.36-1.76.36Z"/>
    <path class="cls-1" d="M521.11,403.14c.31.46.47.95.47,1.47,0,.45-.11.88-.33,1.29-.22.41-.54.77-.95,1.07-.85.61-1.85.92-2.98.92-.56,0-1.1-.08-1.61-.24-.51-.16-.97-.38-1.37-.68-.7-.51-1.12-1.14-1.26-1.88l.79-.44c.04.67.37,1.22.99,1.65.32.24.69.43,1.12.56.43.13.88.19,1.35.19.98,0,1.8-.25,2.47-.75.65-.48.97-1.04.97-1.68,0-.38-.12-.73-.36-1.06-.24-.33-.57-.61-1-.84-.4-.21-1.12-.37-2.16-.49-.09-.01-.39-.06-.92-.15-.53-.09-.99-.22-1.36-.4-.6-.29-1.07-.68-1.41-1.16-.34-.48-.51-1-.51-1.56,0-.45.11-.88.34-1.27.23-.4.55-.75.96-1.05.4-.29.86-.52,1.37-.68.51-.16,1.05-.24,1.61-.24,1.13,0,2.13.31,2.98.92.71.54,1.12,1.16,1.24,1.87l-.79.44c-.01-.3-.1-.6-.27-.88-.16-.28-.4-.54-.7-.77-.33-.24-.71-.43-1.13-.56-.43-.13-.87-.19-1.34-.19s-.91.06-1.34.19c-.43.13-.81.31-1.13.56-.32.23-.56.49-.73.78-.17.29-.26.58-.26.89,0,.38.14.75.42,1.13.28.37.63.66,1.04.87.26.12.54.21.85.27.31.06.71.11,1.2.17.09.01.3.04.64.09.34.05.67.12.99.2.32.09.59.19.81.31.56.32,1,.7,1.31,1.16Z"/>
    <path class="cls-1" d="M524.88,407.74v-11.9h.82v11.9h-.82Z"/>
    <path class="cls-1" d="M533.81,405.89l4.5-10.05h.92l-5.42,12.1-5.4-12.1h.9l4.5,10.05Z"/>
    <path class="cls-1" d="M541.81,407.74v-11.9h7.7v.84h-6.88v4.69h5.36v.84h-5.36v4.67h6.88v.86h-7.7Z"/>
    <path class="cls-1" d="M564.16,408.03c-1.13,0-2.19-.28-3.15-.84-.95-.56-1.72-1.33-2.28-2.29-.56-.96-.84-2.03-.84-3.17s.28-2.19.84-3.15c.56-.96,1.33-1.73,2.28-2.3.96-.57,2.01-.85,3.15-.85.87,0,1.71.18,2.5.54.79.36,1.49.86,2.08,1.49l.19.21-1.02.95-.19-.21c-.46-.49-1.01-.88-1.63-1.15-.62-.27-1.27-.41-1.94-.41-.87,0-1.69.22-2.44.66-.75.44-1.35,1.03-1.78,1.77-.44.74-.66,1.56-.66,2.45s.22,1.71.66,2.46c.44.75,1.04,1.35,1.78,1.79.74.44,1.56.66,2.44.66h3.16v-3.7h-3.92v-1.39h5.34v6.48h-4.58Z"/>
    <path class="cls-1" d="M568.46,407.74h-4.3c-1.09,0-2.09-.27-3-.81-.91-.54-1.64-1.27-2.18-2.19-.54-.92-.81-1.93-.81-3.03s.27-2.09.81-3.01c.54-.92,1.26-1.65,2.18-2.2.91-.54,1.92-.81,3-.81.83,0,1.63.17,2.39.51.76.34,1.42.82,1.99,1.43l-.6.57c-.49-.52-1.06-.93-1.72-1.22-.66-.29-1.34-.43-2.05-.43-.93,0-1.79.23-2.58.7-.79.46-1.42,1.09-1.88,1.88-.46.79-.7,1.65-.7,2.59s.23,1.81.7,2.6c.46.79,1.09,1.42,1.88,1.89.79.47,1.65.7,2.58.7h3.44v-4.26h-3.92v-.82h4.78v5.91Z"/>
    <path class="cls-1" d="M578.86,408.03l-5.41-6.57h2.06c.86,0,1.56-.11,2.09-.33.36-.17.69-.44.96-.8.27-.35.4-.72.4-1.14,0-.37-.11-.72-.34-1.06-.23-.34-.56-.63-.99-.85-.43-.22-.94-.33-1.52-.33h-3.05v11.07h-1.39v-12.46h4.44c.59,0,1.15.1,1.67.28.52.19.98.46,1.37.82.38.34.68.73.88,1.17.21.44.31.9.31,1.37,0,.73-.22,1.39-.66,1.97-.43.57-.95.98-1.54,1.23-.4.18-.8.29-1.18.34-.19.02-.39.04-.59.05l4.31,5.23h-1.83Z"/>
    <path class="cls-1" d="M579,407.74l-4.94-6h1.46c.9,0,1.63-.12,2.2-.35.41-.19.77-.49,1.08-.89.3-.4.46-.83.46-1.31,0-.43-.13-.83-.38-1.22-.26-.38-.62-.7-1.1-.94-.48-.24-1.02-.37-1.65-.37h-3.33v11.07h-.82v-11.9h4.15c.56,0,1.09.09,1.57.27.49.18.91.43,1.28.76.35.32.62.68.81,1.08.19.4.28.82.28,1.24,0,.67-.2,1.27-.6,1.8-.4.53-.88.91-1.43,1.14-.38.17-.75.28-1.11.32-.36.04-.74.06-1.14.06l4.3,5.22h-1.1Z"/>
    <path class="cls-1" d="M588.37,408.15c-1.13,0-2.2-.29-3.16-.85-.97-.57-1.74-1.35-2.3-2.32-.56-.97-.84-2.04-.84-3.19s.28-2.22.84-3.19c.56-.97,1.33-1.75,2.3-2.32.97-.57,2.03-.85,3.16-.85s2.2.29,3.16.85c.97.57,1.74,1.35,2.3,2.32.56.97.84,2.05.84,3.19s-.28,2.22-.84,3.19c-.56.97-1.33,1.75-2.3,2.32-.97.57-2.03.85-3.16.85ZM588.37,396.84c-.88,0-1.71.22-2.45.66-.75.44-1.35,1.05-1.79,1.8-.44.75-.67,1.59-.67,2.48s.22,1.73.67,2.48c.44.75,1.05,1.36,1.79,1.8.74.44,1.57.67,2.45.67s1.71-.22,2.45-.66c.75-.44,1.35-1.05,1.78-1.8.44-.75.66-1.59.66-2.48s-.22-1.73-.66-2.48c-.44-.75-1.04-1.36-1.78-1.8-.75-.44-1.57-.66-2.45-.66Z"/>
    <path class="cls-1" d="M588.37,407.87c-1.09,0-2.09-.27-3.02-.81-.93-.54-1.66-1.28-2.2-2.21-.54-.93-.81-1.95-.81-3.05s.27-2.11.81-3.05c.54-.93,1.27-1.67,2.2-2.21.93-.54,1.93-.81,3.02-.81s2.09.27,3.02.81c.93.54,1.66,1.28,2.2,2.21.54.93.81,1.95.81,3.05s-.27,2.11-.81,3.05c-.54.93-1.27,1.67-2.2,2.21-.93.54-1.93.81-3.02.81ZM588.37,396.56c-.94,0-1.81.23-2.6.7-.79.47-1.42,1.1-1.89,1.9-.47.8-.7,1.67-.7,2.63s.23,1.83.7,2.63,1.1,1.43,1.89,1.9c.79.47,1.66.7,2.6.7s1.81-.23,2.6-.7c.79-.47,1.42-1.1,1.89-1.9.46-.8.7-1.67.7-2.63s-.23-1.83-.7-2.63c-.46-.8-1.09-1.43-1.89-1.9-.79-.47-1.66-.7-2.6-.7Z"/>
    <polygon class="cls-1" points="602.75 399.88 599.3 408.8 595.17 395.56 596.63 395.56 599.43 404.56 602.75 395.99 606.03 404.52 608.8 395.56 610.27 395.56 606.16 408.81 602.75 399.88"/>
    <path class="cls-1" d="M606.06,405.38l2.95-9.53h.88l-3.75,12.1-3.39-8.86-3.42,8.86-3.77-12.1h.86l2.98,9.57,3.35-8.64,3.31,8.6Z"/>
    <polygon class="cls-1" points="616.23 408.03 616.23 396.97 611.51 396.97 611.51 395.56 622.34 395.56 622.34 396.97 617.64 396.97 617.64 408.03 616.23 408.03"/>
    <path class="cls-1" d="M622.06,395.85v.84h-4.7v11.05h-.84v-11.05h-4.72v-.84h10.27Z"/>
    <polygon class="cls-1" points="632.31 408.03 632.31 402.5 625.85 402.5 625.85 408.03 624.45 408.03 624.45 395.56 625.85 395.56 625.85 401.09 632.31 401.09 632.31 395.56 633.71 395.56 633.71 408.03 632.31 408.03"/>
    <path class="cls-1" d="M632.6,402.22h-7.03v5.53h-.84v-11.9h.84v5.53h7.03v-5.53h.82v11.9h-.82v-5.53Z"/>
  </g>
</svg>