<?xml version="1.0" encoding="UTF-8"?>
<svg id="Layer_1" data-name="Layer 1" xmlns="http://www.w3.org/2000/svg" viewBox="0 0 841.89 595.28">
  <defs>
    <style>
      .cls-1 {
        font-family: Kiona-Regular, Kiona;
        font-size: 44.96px;
      }

      .cls-1, .cls-2 {
        fill: #575756;
      }

      .cls-3 {
        fill: #fad;
        stroke: #575756;
        stroke-miterlimit: 10;
        stroke-width: 4px;
      }

      .cls-2, .cls-4 {
        stroke-width: 0px;
      }

      .cls-4 {
        fill: #fff;
      }
    </style>
  </defs>
  <path class="cls-4" d="M628.37,314.45h0c0-1.03-.01-2.06-.04-3.08-.01-.44-.03-.88-.04-1.32-.02-.56-.04-1.11-.06-1.67-.03-.6-.06-1.19-.1-1.78-.02-.36-.04-.71-.07-1.07-.05-.74-.11-1.48-.17-2.21-.01-.13-.02-.26-.04-.39-1.25-14.17-4.77-27.7-10.2-40.21-.09-.21-.18-.41-.27-.61-.26-.59-.52-1.18-.79-1.77-.3-.66-.61-1.32-.92-1.97-.07-.16-.15-.31-.22-.47-4.53-9.42-10.2-18.32-16.93-26.46-.1-.12-.21-.21-.33-.3-23.94-28.75-59.98-47.08-100.22-47.08h-154.06c-71.9,0-130.4,58.5-130.4,130.4h0c0,1.03.01,2.06.04,3.08.01.44.03.88.04,1.32.02.56.04,1.11.06,1.67.03.6.06,1.19.1,1.78.02.36.04.71.07,1.07.05.74.11,1.48.17,2.21.01.13.02.26.04.39,1.25,14.17,4.77,27.7,10.2,40.21.09.21.18.41.27.61.26.59.52,1.18.79,1.77.3.66.61,1.31.92,1.97.08.16.15.32.22.47,4.53,9.42,10.2,18.32,16.93,26.46.1.12.21.21.33.3,23.94,28.75,59.98,47.08,100.22,47.08h154.06c71.9,0,130.4-58.5,130.4-130.4h0Z"/>
  <path class="cls-2" d="M628.37,314.45h0c0-1.03-.01-2.06-.04-3.08-.01-.44-.03-.88-.04-1.32-.02-.56-.04-1.11-.06-1.67-.03-.6-.06-1.19-.1-1.78-.02-.36-.04-.71-.07-1.07-.05-.74-.11-1.48-.17-2.21-.01-.13-.02-.26-.04-.39-1.25-14.17-4.77-27.69-10.2-40.21-.09-.21-.18-.42-.27-.63-.26-.59-.52-1.18-.79-1.76-.3-.66-.61-1.33-.93-1.98-.07-.15-.14-.3-.21-.45-4.53-9.42-10.2-18.32-16.93-26.46-.1-.12-.21-.21-.33-.3-23.94-28.75-59.98-47.08-100.22-47.08h-154.06c-71.9,0-130.4,58.5-130.4,130.4h0c0,1.03.01,2.06.04,3.08.01.44.03.88.04,1.32.02.56.04,1.11.06,1.67.03.6.06,1.19.1,1.78.02.36.04.71.07,1.07.05.74.11,1.48.17,2.21.01.13.02.26.04.39,1.25,14.17,4.77,27.69,10.2,40.21.09.21.18.42.27.62.26.59.52,1.18.79,1.76.3.66.61,1.32.93,1.98.07.15.14.31.22.46,4.53,9.42,10.2,18.32,16.93,26.46.1.12.21.21.33.3,23.94,28.75,59.98,47.08,100.22,47.08h154.06c71.9,0,130.4-58.5,130.4-130.4h0ZM229.55,369.47c-.05-.1-.09-.19-.14-.29-.33-.69-.65-1.38-.97-2.08-.25-.55-.49-1.1-.74-1.65-.1-.22-.2-.45-.29-.67-5.34-12.38-8.71-25.6-9.92-39.12-.01-.13-.02-.25-.03-.38-.06-.72-.12-1.44-.16-2.16-.02-.34-.05-.69-.07-1.03-.04-.58-.07-1.16-.1-1.74-.02-.54-.04-1.08-.06-1.62-.01-.43-.03-.86-.04-1.29-.02-1-.04-2-.04-3h0c0-1.09.01-2.18.04-3.27.97-37.96,18.68-71.83,46.02-94.48.06-.05.12-.1.17-.15.13-.11.26-.21.39-.32,21.89-17.93,49.86-28.7,80.29-28.7h44.86s0,0,.01,0h109.19c50.28,0,93.83,29.39,114.36,71.9.05.1.09.19.14.29.33.69.65,1.38.97,2.08.25.55.5,1.1.74,1.65.1.22.2.44.29.66,5.34,12.38,8.71,25.6,9.92,39.12.01.13.02.25.03.38.06.72.12,1.44.16,2.16.02.34.05.69.07,1.03.04.58.07,1.16.1,1.74.02.54.04,1.08.06,1.62.01.43.03.86.04,1.29.02,1,.04,2,.04,3h0c0,1.09-.01,2.18-.04,3.27-1,39.37-20.03,74.34-49.11,96.96-21.5,16.72-48.49,26.69-77.77,26.69h-44.86s0,0,0,0h-109.19c-50.28,0-93.83-29.39-114.36-71.9Z"/>
  <text class="cls-1" transform="translate(366.74 301.31)"><tspan x="0" y="0">JOIN</tspan><tspan x="-87.57" y="53.95">COMMUNITY</tspan></text>
  <path class="cls-3" d="M453.74,186.05c-15.61,6.24-27.75,19.36-32.65,35.61-4.9-16.25-17.04-29.35-32.65-35.61,15.61-6.27,27.74-19.36,32.65-35.61,4.9,16.25,17.04,29.37,32.65,35.61Z"/>
</svg>